<svg xmlns="http://www.w3.org/2000/svg" xmlns:xlink="http://www.w3.org/1999/xlink" viewBox="0 0 442.51 322.77"><defs><style>.cls-1{fill:#afb7f7;}.cls-2{fill:#ffe09d;}.cls-3{fill:#2a3554;}.cls-4{fill:#161631;}.cls-5{fill:url(#Degradado_sin_nombre_25);}.cls-6{fill:#e3e3ff;}.cls-19,.cls-7{fill:#fff;}.cls-8{fill:#5446cf;}.cls-9{fill:#6c5ef1;}.cls-10{fill:#8380f9;}.cls-11{fill:#f5ab86;}.cls-12{fill:#161642;}.cls-13{fill:#f88265;}.cls-14{fill:#f8664d;}.cls-15{fill:#ccf;}.cls-16{fill:url(#Degradado_sin_nombre_24);}.cls-17{fill:url(#Degradado_sin_nombre_26);}.cls-18{fill:#445279;}.cls-19{opacity:0.5;}.cls-20{fill:#9fb8c8;}</style><linearGradient id="Degradado_sin_nombre_25" x1="113.8" y1="235.55" x2="407.48" y2="235.55" gradientUnits="userSpaceOnUse"><stop offset="0" stop-color="#8ec8ff"/><stop offset="1" stop-color="#c4b4ff"/></linearGradient><linearGradient id="Degradado_sin_nombre_24" x1="108.24" y1="277.27" x2="142.46" y2="277.27" gradientUnits="userSpaceOnUse"><stop offset="0" stop-color="#d1a1f9"/><stop offset="1" stop-color="#8c7ffe"/></linearGradient><linearGradient id="Degradado_sin_nombre_26" x1="197.9" y1="363.94" x2="237.64" y2="363.94" gradientUnits="userSpaceOnUse"><stop offset="0" stop-color="#7d75fa"/><stop offset="1" stop-color="#8351d8"/></linearGradient></defs><g id="OBJECTS"><path class="cls-1" d="M301,195c88.94-31.32,180.37,12.09,125.17,109.23-53.69,94.49,25.36,119.53,25.36,119.53L128.18,422C62.38,398.19,6.39,294.66,68,262.1c0,0,39.19-7.54,42.71-34.89s-12.07-49.77,13.07-67,67.41-12.46,106.58,21C260.49,207.08,301,195,301,195Z" transform="translate(-30.7 -131.37)"/><circle class="cls-2" cx="89.86" cy="219.87" r="25.85"/><circle class="cls-2" cx="211.13" cy="265.14" r="25.85"/><circle class="cls-2" cx="388.3" cy="46.84" r="31.73"/><ellipse class="cls-1" cx="221.25" cy="296.63" rx="221.25" ry="14"/><rect class="cls-3" x="208.69" y="208.36" width="46.24" height="88.55"/><path class="cls-3" d="M174.17,276.51H289.61a18.74,18.74,0,0,1,18.74,18.74V298a0,0,0,0,1,0,0H155.43a0,0,0,0,1,0,0v-2.8A18.74,18.74,0,0,1,174.17,276.51Z"/><polygon class="cls-4" points="254.93 211.06 208.69 219.87 208.69 208.36 254.93 208.36 254.93 211.06"/><rect class="cls-3" x="74.87" width="310.13" height="208.36" rx="5.95"/><path class="cls-5" d="M407.48,145.74V325.36a6.05,6.05,0,0,1-6.05,6.05H119.83a5.59,5.59,0,0,1-2.09-.39,6,6,0,0,1-3.94-5.66V145.74a6,6,0,0,1,6-6h281.6a6,6,0,0,1,6.05,6Z" transform="translate(-30.7 -131.37)"/><path class="cls-6" d="M407.48,145.74v8.94H113.8v-8.94a6,6,0,0,1,6-6h281.6A6,6,0,0,1,407.48,145.74Z" transform="translate(-30.7 -131.37)"/><path class="cls-7" d="M153.61,147.31h0a2,2,0,0,0,2,2H354a2,2,0,0,0,2-2h0a2,2,0,0,0-2-2H155.59A2,2,0,0,0,153.61,147.31Z" transform="translate(-30.7 -131.37)"/><path class="cls-3" d="M131,147.31v1.47a.55.55,0,0,1-.82.47l-1.27-.73-1.27-.74a.54.54,0,0,1,0-.94l1.27-.74,1.27-.73a.55.55,0,0,1,.82.47Z" transform="translate(-30.7 -131.37)"/><path class="cls-3" d="M137.61,147.31v1.47a.54.54,0,0,0,.82.47l1.27-.73,1.27-.74a.54.54,0,0,0,0-.94l-1.27-.74-1.27-.73a.54.54,0,0,0-.82.47Z" transform="translate(-30.7 -131.37)"/><path class="cls-8" d="M384.44,147.19a2.94,2.94,0,1,1-2.94-2.93A2.94,2.94,0,0,1,384.44,147.19Z" transform="translate(-30.7 -131.37)"/><path class="cls-9" d="M373.58,147.19a2.94,2.94,0,1,1-2.93-2.93A2.94,2.94,0,0,1,373.58,147.19Z" transform="translate(-30.7 -131.37)"/><path class="cls-10" d="M395.29,147.19a2.94,2.94,0,1,1-2.93-2.93A2.94,2.94,0,0,1,395.29,147.19Z" transform="translate(-30.7 -131.37)"/><rect class="cls-6" x="96.23" y="43" width="24.98" height="113.17"/><rect class="cls-3" x="96.23" y="43" width="24.98" height="7.51"/><rect class="cls-6" x="341.25" y="100.49" width="24.98" height="55.68"/><rect class="cls-3" x="341.25" y="100.49" width="24.98" height="7.99"/><rect class="cls-6" x="341.82" y="43.39" width="24.98" height="32.45"/><rect class="cls-3" x="341.82" y="43.39" width="24.98" height="7.99"/><rect class="cls-6" x="132.51" y="43.39" width="198.76" height="112.78"/><rect class="cls-9" x="222.02" y="74.82" width="61.42" height="61.42"/><circle class="cls-2" cx="232.15" cy="227.51" r="30.65" transform="translate(-74.61 267.72) rotate(-76.28)"/><polygon class="cls-8" points="213.84 146.48 178.4 146.48 196.12 115.79 213.84 85.1 231.56 115.79 249.28 146.48 213.84 146.48"/><rect class="cls-3" x="132.51" y="43.39" width="198.76" height="9.68"/><path class="cls-3" d="M193.48,280.52A.47.47,0,0,1,193,280V191a.47.47,0,0,1,.47-.47.48.48,0,0,1,.48.47V280A.48.48,0,0,1,193.48,280.52Z" transform="translate(-30.7 -131.37)"/><path class="cls-3" d="M194.9,191.21a1.44,1.44,0,1,1-1.44-1.44A1.44,1.44,0,0,1,194.9,191.21Z" transform="translate(-30.7 -131.37)"/><path class="cls-3" d="M194.9,280a1.44,1.44,0,1,1-1.44-1.43A1.44,1.44,0,0,1,194.9,280Z" transform="translate(-30.7 -131.37)"/><path class="cls-3" d="M331.4,280.52a.47.47,0,0,1-.48-.48V191a.48.48,0,0,1,.95,0V280A.47.47,0,0,1,331.4,280.52Z" transform="translate(-30.7 -131.37)"/><path class="cls-3" d="M332.81,191.21a1.44,1.44,0,1,1-1.44-1.44A1.43,1.43,0,0,1,332.81,191.21Z" transform="translate(-30.7 -131.37)"/><path class="cls-3" d="M332.81,280a1.44,1.44,0,1,1-1.44-1.43A1.43,1.43,0,0,1,332.81,280Z" transform="translate(-30.7 -131.37)"/><path class="cls-11" d="M49.33,394.41l-5.8,7.46a12,12,0,0,0,5.35,5.9l6.93-8.58Z" transform="translate(-30.7 -131.37)"/><path class="cls-10" d="M47.92,405.46s2.71-.56,3.64.34S54.81,419,57,421.65s0,4.11-1.35,4.65-20.56-17.91-20.56-17.91,4.75-6.31,7-7.54S45.49,404.16,47.92,405.46Z" transform="translate(-30.7 -131.37)"/><path class="cls-7" d="M48.37,412.25a.48.48,0,0,1-.27-.27.45.45,0,0,1,.29-.59A7.84,7.84,0,0,1,52,411a3.28,3.28,0,0,1,2.51,2.25.47.47,0,0,1-.36.56.48.48,0,0,1-.58-.35,2.35,2.35,0,0,0-1.8-1.55,6.76,6.76,0,0,0-3.06.33A.49.49,0,0,1,48.37,412.25Z" transform="translate(-30.7 -131.37)"/><path class="cls-7" d="M48.14,410.35a.49.49,0,0,1-.26-.27.46.46,0,0,1,.29-.59,7.81,7.81,0,0,1,3.62-.37,3.28,3.28,0,0,1,2.52,2.25.47.47,0,0,1-.36.56.5.5,0,0,1-.59-.35A2.34,2.34,0,0,0,51.57,410a7,7,0,0,0-3.07.33A.45.45,0,0,1,48.14,410.35Z" transform="translate(-30.7 -131.37)"/><path class="cls-7" d="M49.14,414.28a.49.49,0,0,1-.26-.27.47.47,0,0,1,.29-.6,7.72,7.72,0,0,1,3.62-.36,3.25,3.25,0,0,1,2.52,2.25.47.47,0,0,1-.36.56.5.5,0,0,1-.59-.35A2.32,2.32,0,0,0,52.57,414a6.67,6.67,0,0,0-3.07.33A.55.55,0,0,1,49.14,414.28Z" transform="translate(-30.7 -131.37)"/><path class="cls-12" d="M86,293.19l-5.24,49.7a123.35,123.35,0,0,0-11.87,17.3c-4.2,7.65-22.09,35-22.09,35l8.56,7L100,352.1l9.88-59.42Z" transform="translate(-30.7 -131.37)"/><path class="cls-11" d="M94.13,408.72l.87,9.64a12.38,12.38,0,0,0,8.09,1l-.82-11.27Z" transform="translate(-30.7 -131.37)"/><path class="cls-10" d="M101.33,418s1.7-2.35,3.07-2.27,12.09,8.35,15.73,9,3,3.33,2.33,4.7-28.82.59-28.82.59-1-9.09-.15-11.68S98.5,418.64,101.33,418Z" transform="translate(-30.7 -131.37)"/><path class="cls-7" d="M106.81,422.94a.46.46,0,0,1-.38,0,.48.48,0,0,1-.22-.65,7.54,7.54,0,0,1,2.35-2.78,3.34,3.34,0,0,1,3.43-.05.47.47,0,0,1,.14.67.48.48,0,0,1-.67.14,2.37,2.37,0,0,0-2.41.08,6.53,6.53,0,0,0-2,2.37A.48.48,0,0,1,106.81,422.94Z" transform="translate(-30.7 -131.37)"/><path class="cls-7" d="M105.28,421.67a.5.5,0,0,1-.38,0,.48.48,0,0,1-.22-.65,7.54,7.54,0,0,1,2.35-2.78,3.31,3.31,0,0,1,3.43-.05.48.48,0,1,1-.52.81,2.39,2.39,0,0,0-2.42.08,6.61,6.61,0,0,0-2,2.37A.49.49,0,0,1,105.28,421.67Z" transform="translate(-30.7 -131.37)"/><path class="cls-7" d="M108.83,423.92a.46.46,0,0,1-.38,0,.47.47,0,0,1-.22-.64,7.46,7.46,0,0,1,2.35-2.78,3.32,3.32,0,0,1,3.43-.06.48.48,0,1,1-.52.81,2.42,2.42,0,0,0-2.42.08,6.61,6.61,0,0,0-2,2.37A.46.46,0,0,1,108.83,423.92Z" transform="translate(-30.7 -131.37)"/><path class="cls-3" d="M58.77,294.63s10.44,37.13,24,57.16c0,0,2,19.49,5.49,29.87,1.52,4.54,5.37,31.59,5.37,31.59l1.67-.24,1-.15,7.41-1.07-3.33-64.38L84.07,296.57,63,295l-1.12-.08Z" transform="translate(-30.7 -131.37)"/><path class="cls-12" d="M61.88,294.87,85,351.82c0,.07,3.45,15.53,5.39,26.4,1.74,9.67,4.27,26.51,4.95,34.79l1-.15c-.69-8.36-3.17-24.92-5-34.82-2-10.88-5.4-26.36-5.43-26.52L63,295Z" transform="translate(-30.7 -131.37)"/><path class="cls-9" d="M108.35,241.38c3,11.23,11.4,19.49,11.4,19.49,4.87,2.5,17.91,7.75,22.51,7a37.35,37.35,0,0,1,.84-9.15c-6.25-.43-17.27-7.73-17.27-7.73-9.33-18.6-10.22-39.19-10.22-39.19C108.88,218.42,108.35,241.38,108.35,241.38Z" transform="translate(-30.7 -131.37)"/><path class="cls-10" d="M58.92,281.44c0,.35-.07.71-.1,1.05-.57,6.35-1,11.28-1.17,13.7a102.3,102.3,0,0,0,18.1,4.91l.83.14.44.07,1,.15,1.09.16a99,99,0,0,0,12.54.91c.85,0,1.7,0,2.55,0h.16l.66,0h.39A101.72,101.72,0,0,0,110.23,301c.11-1.09.27-2.72.45-4.77,0-.38.07-.77.11-1.18h0c.26-2.94.58-6.59.92-10.72l.09-1.07c.23-2.75.47-5.7.71-8.77l.09-1.07c.24-3.15.5-6.42.74-9.75.16-2,.31-4.08.45-6.13.24-3.46.41-5.91.43-6.23.61-8.9,5.45-35.56,1-41a38.42,38.42,0,0,0-5.22-5.17l-.9-.69c-1-.77-9.59-4.58-10.65-5.35l-9.29-1.5c-.06,0-9.27,2.23-9.33,2.25l-1.21.56a53.33,53.33,0,0,0-9,4.88c-.29.23-.56.45-.79.67a5.76,5.76,0,0,0-.49.52,3,3,0,0,0-.4.79c-1.51,4-3.57,20.1-5.47,37.64-.14,1.26-.27,2.52-.4,3.79l-.18,1.67-.12,1.16-.06.57c-.1,1-.2,1.91-.29,2.86-.08.7-.15,1.4-.22,2.1C60.36,265.84,59.55,274.43,58.92,281.44Z" transform="translate(-30.7 -131.37)"/><path class="cls-9" d="M81.33,250.2a42.71,42.71,0,0,0,19.75,10.73.56.56,0,0,0,.7-.5v0a.56.56,0,0,0-.43-.59,41.54,41.54,0,0,1-19.23-10.45.56.56,0,0,0-1,.34v0A.58.58,0,0,0,81.33,250.2Z" transform="translate(-30.7 -131.37)"/><path class="cls-9" d="M81.23,241.59v0a.5.5,0,0,0,.08.26c.31.49.66,1,1.07,1.54a22.7,22.7,0,0,0,13.33,8.31l.13,0a.52.52,0,0,0,.1-1,21.38,21.38,0,0,1-13.75-9.43A.52.52,0,0,0,81.23,241.59Z" transform="translate(-30.7 -131.37)"/><path class="cls-9" d="M82.06,238.29h0a.51.51,0,0,0,.25.73A36.81,36.81,0,0,0,98,241.67a35,35,0,0,0,9.55-1.67.52.52,0,0,0-.35-1,37.34,37.34,0,0,1-24.5-1A.5.5,0,0,0,82.06,238.29Z" transform="translate(-30.7 -131.37)"/><path class="cls-8" d="M75.21,296l-1.76-3.63a5.93,5.93,0,0,1,2.74-7.94l102.6-49.92,7,14.32L83.16,298.71A6,6,0,0,1,75.21,296Z" transform="translate(-30.7 -131.37)"/><rect class="cls-10" x="185" y="224.54" width="15.92" height="23.77" transform="translate(290.44 -171.9) rotate(64.06)"/><path class="cls-7" d="M228.18,234.37a31.47,31.47,0,0,1-21,4l-7-14.32s5.45-9.55,14.18-11.63a24.92,24.92,0,0,1,5.06-.72h0c11.84-.35,10.07,10.9,28-1.78C247.4,209.94,241.79,226.31,228.18,234.37Z" transform="translate(-30.7 -131.37)"/><path class="cls-8" d="M228.18,234.37c-6-.92-5.64-11.16-4.58-15.2,1.27-4.83-4-7.35-4.18-7.45,11.84-.35,10.07,10.9,28-1.78C247.4,209.94,241.79,226.31,228.18,234.37Z" transform="translate(-30.7 -131.37)"/><path class="cls-11" d="M93.64,278l1.48.67a3.53,3.53,0,0,0,3.81-.62,19.38,19.38,0,0,1,1.7-1.4c1.11-.61,3.71-1.29,4.43-1s0,1.53-.77,1.88a12.42,12.42,0,0,0-2.68,1.34c-.79.62,2.33,4.05,3.73,5.15s4.55,1.53,4.22,3-2.49.67-2.49.67.06,1.46-2.1,1.64a1.77,1.77,0,0,1-1.62,1.4,2,2,0,0,1-2,1.31c-1.47-.21-6-.89-11.75-9.32Z" transform="translate(-30.7 -131.37)"/><path class="cls-9" d="M94.11,277.23S73.09,260,66.37,250.9c0,0,1.21-10.81,2.53-19.45a79.39,79.39,0,0,0,.8-16.94,30.18,30.18,0,0,0-1.31-8.09s-6.1,1.79-10.09,22.1a208.93,208.93,0,0,0-3.39,24.41,9.25,9.25,0,0,0,2,6.41c4.45,5.66,15.62,18,32,23.88C88.86,283.22,93.21,279.85,94.11,277.23Z" transform="translate(-30.7 -131.37)"/><path class="cls-11" d="M156.18,261.31S153,258.7,151,258.8s1.85,4.32,1.85,4.32-4.61-5.05-6-4.18,2.93,5.9,2.93,5.9-3.65-2.94-4.8-2.38,1.87,4.37,1.87,4.37-3.13-2-4.05-1.72,1.25,3.84,2.94,5.17,3-1.27,3-1.27,2.38-.95,2.53-2.14c0,0,2.33-.6,2.92-1.85C154.14,265,157.62,263.63,156.18,261.31Z" transform="translate(-30.7 -131.37)"/><path class="cls-3" d="M81.47,194.37q10.25,3.6,20.54,7a7.06,7.06,0,0,0,8.73-4l0,0c2.29-5.44,7-11.63,8-14.43v0c.21-.45.39-.91.56-1.37,2.46-6.71,2.7-20.48-12.59-23.74,0,0-12.6-2.94-18.21,8.4,0,0-2.52,5.25-4.31,9.07-2,4.35-3.6,5.77-5,6.83a7,7,0,0,0,2,12.19Z" transform="translate(-30.7 -131.37)"/><path class="cls-13" d="M113.51,181.94s3-1.89,3.79.84-3.72,8.41-7,5.48Z" transform="translate(-30.7 -131.37)"/><path class="cls-7" d="M112.2,188.42a.75.75,0,0,0,.45.94.74.74,0,0,0,.5-1.39A.75.75,0,0,0,112.2,188.42Z" transform="translate(-30.7 -131.37)"/><path class="cls-14" d="M111.89,186.56a.32.32,0,0,0,.38-.11,5.15,5.15,0,0,1,3.79-1.81.32.32,0,0,0,.32-.33A.34.34,0,0,0,116,184a5.7,5.7,0,0,0-4.31,2.07.33.33,0,0,0,.08.46Z" transform="translate(-30.7 -131.37)"/><path class="cls-14" d="M114.44,186.34a.4.4,0,0,0,.19,0,.31.31,0,0,0,.24-.39,3,3,0,0,0-.87-1.35.34.34,0,0,0-.48,0,.31.31,0,0,0,0,.46,2.52,2.52,0,0,1,.68,1A.34.34,0,0,0,114.44,186.34Z" transform="translate(-30.7 -131.37)"/><path class="cls-11" d="M92.62,189.7l-2.83,7.91s2.67,4.15,5.45,5.42,5-1.75,5-1.75l2.63-7.37Z" transform="translate(-30.7 -131.37)"/><path class="cls-13" d="M92.34,190.47l-1.13,3.16c1.17,2.82,4.31,4.8,9.64,5.86l1.72-4.8Z" transform="translate(-30.7 -131.37)"/><path class="cls-11" d="M113.68,185.4c-.36.73-.75,1.47-1.16,2.19-2.75,4.82-8,9.22-12.43,8.68-9.59-1.15-10.79-9.44-10.37-15.09,0-.62.58-1.17.69-1.89a53.85,53.85,0,0,1,.78-5.61c.34-1.28.71-2.53,1-3.66a7.72,7.72,0,0,1,7-5.51c4.66-.17,11.32.76,16,6.29a7.78,7.78,0,0,1,1.37,7.48A58.35,58.35,0,0,1,113.68,185.4Z" transform="translate(-30.7 -131.37)"/><path class="cls-13" d="M101.43,185.51a.36.36,0,0,1-.23-.41.35.35,0,0,1,.42-.29l1.26.22-.08-4.92a.36.36,0,0,1,.36-.38.37.37,0,0,1,.37.36l.09,5.82-2.13-.38Z" transform="translate(-30.7 -131.37)"/><path class="cls-3" d="M113.36,175.51c2.91,2.82.33,6.55.77,9,0,.16.09.21.2.17a58.11,58.11,0,0,0,3-7.25,7.89,7.89,0,0,0-1.51-7.67c-4.93-5.71-11.93-6.74-16.82-6.62a7.88,7.88,0,0,0-7.34,5.57c-.35,1.15-.72,2.43-1.06,3.73.45.55,1.8,1.21,1.53,2.15-.72,2.51-1.2,4.23-.63,4.26,1,.06,2.54-2.71,2.24-5,0,0,1.25-1,4.93-1.1a65.58,65.58,0,0,0,9.55-1.05,8,8,0,0,0,2.89-1.21A7.79,7.79,0,0,0,113.36,175.51Z" transform="translate(-30.7 -131.37)"/><path class="cls-3" d="M107.52,181.21c-.27.76-.1,1.51.39,1.68s1.09-.3,1.36-1.06.1-1.51-.38-1.68S107.79,180.45,107.52,181.21Z" transform="translate(-30.7 -131.37)"/><path class="cls-3" d="M98.08,177.83c-.27.76-.1,1.52.38,1.69s1.09-.3,1.37-1.06.09-1.52-.39-1.69S98.35,177.07,98.08,177.83Z" transform="translate(-30.7 -131.37)"/><path class="cls-3" d="M112,178.75a17.68,17.68,0,0,0-3.53-1.6.66.66,0,0,0-.89.39h0a.6.6,0,0,0,.49.62,20.78,20.78,0,0,1,4.88,2.1.69.69,0,0,0-.07-.64A2.32,2.32,0,0,0,112,178.75Z" transform="translate(-30.7 -131.37)"/><path class="cls-3" d="M97.93,173.9a17.84,17.84,0,0,1,3.76.94.66.66,0,0,1,.45.86h0a.59.59,0,0,1-.77.18,20.6,20.6,0,0,0-5.12-1.4c0-.19.22-.34.46-.45A2.18,2.18,0,0,1,97.93,173.9Z" transform="translate(-30.7 -131.37)"/><path class="cls-7" d="M104.52,188.93a4.15,4.15,0,0,1-5.19,2,4,4,0,0,1-2.72-4.84Z" transform="translate(-30.7 -131.37)"/><path class="cls-13" d="M98.63,193a3.61,3.61,0,0,0,1.75.1.37.37,0,0,0,.28-.43.36.36,0,0,0-.43-.27h0a2.86,2.86,0,0,1-1.36-.08,3,3,0,0,1-1.17-.83.36.36,0,1,0-.55.46A3.82,3.82,0,0,0,98.63,193Z" transform="translate(-30.7 -131.37)"/><path class="cls-11" d="M92.14,174.29s-1.37-3.81-3.56-2.2-2.4,8.6,1.64,8.32Z" transform="translate(-30.7 -131.37)"/><path class="cls-7" d="M88,179.76a.74.74,0,0,0,1.39.5.72.72,0,0,0-.45-.94A.73.73,0,0,0,88,179.76Z" transform="translate(-30.7 -131.37)"/><path class="cls-13" d="M90.15,178.2a.32.32,0,0,1-.21-.32,4.82,4.82,0,0,0-1.59-3.64.32.32,0,0,1,0-.44.32.32,0,0,1,.45,0,5.41,5.41,0,0,1,1.81,4.16.32.32,0,0,1-.34.3Z" transform="translate(-30.7 -131.37)"/><path class="cls-13" d="M88.48,176.5a.31.31,0,0,1-.15-.1.32.32,0,0,1,.06-.44,2.85,2.85,0,0,1,1.43-.5.31.31,0,0,1,.34.29.33.33,0,0,1-.29.34,2.21,2.21,0,0,0-1.1.37A.3.3,0,0,1,88.48,176.5Z" transform="translate(-30.7 -131.37)"/><rect class="cls-9" x="423.6" y="265.66" width="19.27" height="154.6" transform="translate(-63.66 -85.03) rotate(-5.9)"/><rect class="cls-8" x="426.94" y="266.25" width="1.28" height="154.6" transform="translate(-63.75 -85.61) rotate(-5.9)"/><rect class="cls-8" x="432.59" y="265.66" width="1.28" height="154.6" transform="translate(-63.66 -85.03) rotate(-5.9)"/><rect class="cls-8" x="438.23" y="265.08" width="1.28" height="154.6" transform="translate(-63.57 -84.45) rotate(-5.9)"/><rect class="cls-3" x="431.13" y="411.79" width="19.27" height="8.08" transform="translate(-71.1 -83.88) rotate(-5.9)"/><path class="cls-10" d="M431.59,420.84l.24,2.29a9.64,9.64,0,0,0,10.57,8.6h0a9.64,9.64,0,0,0,8.6-10.58l-.24-2.29Z" transform="translate(-30.7 -131.37)"/><polygon class="cls-11" points="404.17 133.71 385 135.69 389.36 122.23 390.27 119.43 392.84 111.52 396.7 119.09 398.21 122.04 404.17 133.71"/><path class="cls-3" d="M427.4,250.46a9.58,9.58,0,0,1-3,.76,6.93,6.93,0,0,1-3.43-.42l2.57-7.91Z" transform="translate(-30.7 -131.37)"/><path class="cls-10" d="M401.71,351.25v26.29H282.59a6.79,6.79,0,0,1-6.79-6.79V358a6.78,6.78,0,0,1,6.79-6.78Z" transform="translate(-30.7 -131.37)"/><path class="cls-7" d="M401.71,354.57v19.64H293.63a6.28,6.28,0,0,1-6.28-6.27v-7.08a6.28,6.28,0,0,1,6.28-6.29Z" transform="translate(-30.7 -131.37)"/><rect class="cls-15" x="267.63" y="227.18" width="103.38" height="1.73"/><rect class="cls-15" x="267.63" y="232.15" width="103.38" height="1.73"/><rect class="cls-15" x="267.63" y="237.12" width="103.38" height="1.73"/><path class="cls-9" d="M384,377.54v26.29H264.92a6.78,6.78,0,0,1-6.78-6.79V384.32a6.77,6.77,0,0,1,6.78-6.78Z" transform="translate(-30.7 -131.37)"/><path class="cls-7" d="M384,380.86V400.5H276a6.27,6.27,0,0,1-6.27-6.27v-7.08a6.27,6.27,0,0,1,6.27-6.29Z" transform="translate(-30.7 -131.37)"/><rect class="cls-15" x="249.96" y="253.47" width="103.38" height="1.73"/><rect class="cls-15" x="249.96" y="258.44" width="103.38" height="1.73"/><rect class="cls-15" x="249.96" y="263.41" width="103.38" height="1.73"/><path class="cls-8" d="M407.49,403.83v26.29H288.36a6.79,6.79,0,0,1-6.78-6.79V410.61a6.79,6.79,0,0,1,6.78-6.78Z" transform="translate(-30.7 -131.37)"/><path class="cls-7" d="M407.49,407.15v19.64H299.4a6.27,6.27,0,0,1-6.27-6.27v-7.08a6.28,6.28,0,0,1,6.27-6.29Z" transform="translate(-30.7 -131.37)"/><rect class="cls-15" x="273.4" y="279.76" width="103.38" height="1.73"/><rect class="cls-15" x="273.4" y="284.73" width="103.38" height="1.73"/><rect class="cls-15" x="273.4" y="289.7" width="103.38" height="1.73"/><path class="cls-9" d="M158.53,390.58a4.08,4.08,0,0,1-2.45.91,6.28,6.28,0,0,1-1.73-.11,9.39,9.39,0,0,1-2.36-.8s.38-16.17-6.16-27.31-15.2-26.53-8.27-34.42,18.08,3.08,21.73,21.55S158.53,390.58,158.53,390.58Z" transform="translate(-30.7 -131.37)"/><path class="cls-8" d="M156.08,391.49a6.28,6.28,0,0,1-1.73-.11,96.14,96.14,0,0,0-11.06-51.12.86.86,0,0,1,.29-1.19.88.88,0,0,1,1.19.3A97.76,97.76,0,0,1,156.08,391.49Z" transform="translate(-30.7 -131.37)"/><path class="cls-9" d="M181,364.48c-15.31,24.74-14.25,30.46-14.25,30.46l-2-.36-1.71-.3-2.43-.43c-1.36-11,7.07-57.35,22.09-57.35C198,336.5,186.17,356.06,181,364.48Z" transform="translate(-30.7 -131.37)"/><path class="cls-8" d="M180.38,350.25c-.15.24-13,23.1-15.68,44.33l-1.71-.3c2.8-21.57,15.74-44.64,15.88-44.89a.86.86,0,0,1,1.18-.32A.88.88,0,0,1,180.38,350.25Z" transform="translate(-30.7 -131.37)"/><path class="cls-9" d="M151.85,392.78l-1.76.47-1.69.46-1,.27c.06-.22-.7-2.11-11.47-16.5-4.44-5.94-16.3-21.93-5.43-24.62C140.46,350.41,152.14,384.5,151.85,392.78Z" transform="translate(-30.7 -131.37)"/><path class="cls-8" d="M150.09,393.25l-1.69.46c-3.1-13.86-15.71-30.87-15.84-31.06a.86.86,0,0,1,.18-1.21.86.86,0,0,1,1.21.18C134.5,362.37,146.89,379.08,150.09,393.25Z" transform="translate(-30.7 -131.37)"/><path class="cls-16" d="M112.31,256.55h26.08a4.07,4.07,0,0,1,4.07,4.07V298a0,0,0,0,1,0,0H108.24a0,0,0,0,1,0,0V260.62A4.07,4.07,0,0,1,112.31,256.55Z"/><path class="cls-17" d="M199.11,380.23l10.07,6.86a2.79,2.79,0,0,0,3.88-.73l17.39-25.5,7.19-10.55L223,340.3l-4.26,6.25-20.32,29.8A2.79,2.79,0,0,0,199.11,380.23Z" transform="translate(-30.7 -131.37)"/><path class="cls-9" d="M218.7,346.55a38.43,38.43,0,0,0,11.75,14.31l7.19-10.55L223,340.3Z" transform="translate(-30.7 -131.37)"/><path class="cls-3" d="M187.79,378.9h1.86a4.58,4.58,0,0,1,4.58,4.58v50.21a0,0,0,0,1,0,0h-11a0,0,0,0,1,0,0V383.49A4.58,4.58,0,0,1,187.79,378.9Z" transform="translate(85.04 716.92) rotate(-145.71)"/><path class="cls-18" d="M214.52,279.77A50,50,0,1,0,284,267,49.95,49.95,0,0,0,214.52,279.77Zm6.31,4.35a42.29,42.29,0,1,1,10.82,58.82A42.34,42.34,0,0,1,220.83,284.12Z" transform="translate(-30.7 -131.37)"/><path class="cls-19" d="M214.24,299.5a42.3,42.3,0,1,0,50-32.79,43.11,43.11,0,0,0-6.52-.84,42.33,42.33,0,0,0-43.51,33.63Z" transform="translate(-30.7 -131.37)"/><path class="cls-19" d="M234.7,271.4,281,342a42.19,42.19,0,0,0,14.27-18.93l-37.48-57.18A42.17,42.17,0,0,0,234.7,271.4Z" transform="translate(-30.7 -131.37)"/><path class="cls-19" d="M215.85,293.81l37,56.52a42.09,42.09,0,0,0,14.64-1.62L223.17,281A41.93,41.93,0,0,0,215.85,293.81Z" transform="translate(-30.7 -131.37)"/></g><g id="DESIGNED_BY_FREEPIK" data-name="DESIGNED BY FREEPIK"><path class="cls-20" d="M252.62,450.82a2.06,2.06,0,0,0-.29.37l-.12-.06A.15.15,0,0,0,252,451a.16.16,0,0,0-.14.17.16.16,0,0,0,.18.14h0l.11.06a2.15,2.15,0,0,0-.14.45l.2,0a1.77,1.77,0,0,1,.46-.9Z" transform="translate(-30.7 -131.37)"/><path class="cls-20" d="M254,450.22h-.13l0-.16a.18.18,0,0,0-.13-.33.19.19,0,0,0-.17.21.18.18,0,0,0,.11.14l0,.17a2,2,0,0,0-.54.16l.09.18a1.7,1.7,0,0,1,.77-.17,1.72,1.72,0,0,1,.39,0l0-.2A2,2,0,0,0,254,450.22Z" transform="translate(-30.7 -131.37)"/><path class="cls-20" d="M255.76,450.88a.16.16,0,0,0,0-.31.16.16,0,0,0-.14.16l-.11.09a2,2,0,0,0-.36-.29l-.11.16a1.75,1.75,0,0,1,.67.76l.18-.08a2.06,2.06,0,0,0-.25-.4l.11-.09Z" transform="translate(-30.7 -131.37)"/><path class="cls-20" d="M253.9,452.87h-.3a4.16,4.16,0,0,1-.64-.05,2.25,2.25,0,0,1-.33-.08,1.61,1.61,0,0,0,2.94-.35,2.93,2.93,0,0,1-.64.29A5.13,5.13,0,0,1,253.9,452.87Z" transform="translate(-30.7 -131.37)"/><path class="cls-20" d="M254,450.61a1.55,1.55,0,0,0-1.57,1.54,1.84,1.84,0,0,0,0,.33,2.63,2.63,0,0,0,1.39.19,3,3,0,0,0,1.73-.56c0-.05,0-.1,0-.15A1.57,1.57,0,0,0,254,450.61Zm-.56,1.69a.48.48,0,0,1-.48-.48.49.49,0,0,1,.48-.48.48.48,0,0,1,.48.48A.47.47,0,0,1,253.48,452.3Zm1.23-.23a.36.36,0,1,1,.36-.36A.36.36,0,0,1,254.71,452.07Z" transform="translate(-30.7 -131.37)"/><path class="cls-20" d="M258.19,451.1a.77.77,0,0,0-.35-.07c-.15,0-.22.09-.22.27v.22h.57V452h-.57v1.41h-.5V452h-.35v-.45h.35v-.23a.63.63,0,0,1,.66-.72,1,1,0,0,1,.41.08Z" transform="translate(-30.7 -131.37)"/><path class="cls-20" d="M259.41,452h-.13a.37.37,0,0,0-.39.42v1h-.51v-1.86h.49v.2a.6.6,0,0,1,.52-.25.46.46,0,0,1,.29.09Z" transform="translate(-30.7 -131.37)"/><path class="cls-20" d="M261.4,452.45a.91.91,0,0,1,0,.17h-1.32a.45.45,0,0,0,.48.38.71.71,0,0,0,.47-.18l.3.33a1.17,1.17,0,0,1-.8.28,1,1,0,0,1,0-2A.9.9,0,0,1,261.4,452.45Zm-1.32-.18h.82a.41.41,0,0,0-.41-.37A.4.4,0,0,0,260.08,452.27Z" transform="translate(-30.7 -131.37)"/><path class="cls-20" d="M263.39,452.45c0,.06,0,.12,0,.17h-1.32a.44.44,0,0,0,.48.38.73.73,0,0,0,.47-.18l.29.33a1.14,1.14,0,0,1-.79.28,1,1,0,0,1,0-2A.9.9,0,0,1,263.39,452.45Zm-1.33-.18h.82a.41.41,0,0,0-.82,0Z" transform="translate(-30.7 -131.37)"/><path class="cls-20" d="M265.55,452.45a.92.92,0,0,1-.9,1,.71.71,0,0,1-.55-.24v1h-.49v-2.63h.48v.21a.67.67,0,0,1,.56-.26A.92.92,0,0,1,265.55,452.45Zm-1.47,0a.48.48,0,0,0,.48.51.51.51,0,0,0,0-1A.48.48,0,0,0,264.08,452.45Z" transform="translate(-30.7 -131.37)"/><path class="cls-20" d="M266.36,450.91a.32.32,0,1,1-.32-.32A.32.32,0,0,1,266.36,450.91Zm-.07,2.47h-.5v-1.86h.5Z" transform="translate(-30.7 -131.37)"/><path class="cls-20" d="M267.13,452.18l.7-.66h.61l-.9.88.91,1h-.62l-.7-.75v.75h-.51v-2.76h.51Z" transform="translate(-30.7 -131.37)"/><path class="cls-20" d="M233,453.36v-.27a.77.77,0,0,1-.62.32.85.85,0,0,1-.82-1,.86.86,0,0,1,.82-1,.75.75,0,0,1,.62.33v-1h.29v2.53Zm0-.49V452a.67.67,0,0,0-.55-.29c-.37,0-.59.3-.59.71s.22.7.59.7A.67.67,0,0,0,233,452.87Z" transform="translate(-30.7 -131.37)"/><path class="cls-20" d="M233.64,452.44a.92.92,0,0,1,.91-1,.9.9,0,0,1,.88,1v.07h-1.49a.65.65,0,0,0,.66.63.79.79,0,0,0,.57-.23l.14.19a1,1,0,0,1-.73.28A.91.91,0,0,1,233.64,452.44Zm.9-.72a.62.62,0,0,0-.6.61h1.21A.6.6,0,0,0,234.54,451.72Z" transform="translate(-30.7 -131.37)"/><path class="cls-20" d="M235.63,453.12l.15-.2a.85.85,0,0,0,.61.26c.28,0,.43-.14.43-.32,0-.44-1.14-.17-1.14-.85,0-.28.25-.53.69-.53a.93.93,0,0,1,.68.27l-.14.2a.69.69,0,0,0-.54-.24c-.25,0-.41.13-.41.29,0,.41,1.14.14,1.14.85,0,.31-.25.56-.73.56A1,1,0,0,1,235.63,453.12Z" transform="translate(-30.7 -131.37)"/><path class="cls-20" d="M237.42,451.08a.19.19,0,0,1,.19-.2.2.2,0,0,1,.19.2.2.2,0,0,1-.19.19A.19.19,0,0,1,237.42,451.08Zm.05,2.28v-1.83h.28v1.83Z" transform="translate(-30.7 -131.37)"/><path class="cls-20" d="M238.22,453.83l.15-.21a.69.69,0,0,0,.59.25.52.52,0,0,0,.59-.55v-.26a.76.76,0,0,1-.61.33.84.84,0,0,1-.82-.95c0-.59.33-1,.82-1a.75.75,0,0,1,.61.33v-.28h.29v1.78c0,.61-.43.8-.88.8A.92.92,0,0,1,238.22,453.83Zm1.33-1V452a.67.67,0,0,0-.55-.29c-.37,0-.59.29-.59.7s.22.7.59.7A.68.68,0,0,0,239.55,452.84Z" transform="translate(-30.7 -131.37)"/><path class="cls-20" d="M241.55,453.36v-1.2c0-.32-.16-.42-.41-.42a.67.67,0,0,0-.54.28v1.34h-.29v-1.83h.29v.26a.9.9,0,0,1,.65-.31.52.52,0,0,1,.58.6v1.28Z" transform="translate(-30.7 -131.37)"/><path class="cls-20" d="M242.2,452.44a.92.92,0,0,1,.91-1,.9.9,0,0,1,.88,1v.07H242.5a.65.65,0,0,0,.66.63.81.81,0,0,0,.57-.23l.14.19a1,1,0,0,1-.73.28A.91.91,0,0,1,242.2,452.44Zm.9-.72a.62.62,0,0,0-.6.61h1.21A.6.6,0,0,0,243.1,451.72Z" transform="translate(-30.7 -131.37)"/><path class="cls-20" d="M245.68,453.36v-.27a.75.75,0,0,1-.62.32c-.48,0-.81-.37-.81-1s.33-1,.81-1a.75.75,0,0,1,.62.33v-1H246v2.53Zm0-.49V452a.67.67,0,0,0-.55-.29c-.37,0-.59.3-.59.71s.22.7.59.7A.67.67,0,0,0,245.68,452.87Z" transform="translate(-30.7 -131.37)"/><path class="cls-20" d="M247.33,453.36v-2.53h.28v1a.75.75,0,0,1,.62-.33.86.86,0,0,1,.82,1,.85.85,0,0,1-.82,1,.77.77,0,0,1-.62-.32v.27Zm.83-.21c.37,0,.59-.3.59-.7s-.22-.71-.59-.71a.67.67,0,0,0-.55.29v.84A.67.67,0,0,0,248.16,453.15Z" transform="translate(-30.7 -131.37)"/><path class="cls-20" d="M249.36,453.82a.4.4,0,0,0,.15,0,.27.27,0,0,0,.28-.19l.12-.28-.77-1.85h.31l.61,1.5.61-1.5H251l-.92,2.21a.55.55,0,0,1-.54.37.76.76,0,0,1-.21,0Z" transform="translate(-30.7 -131.37)"/></g></svg>