<svg xmlns="http://www.w3.org/2000/svg" version="1.1" xmlns:xlink="http://www.w3.org/1999/xlink" xmlns:svgjs="http://svgjs.dev/svgjs" width="1000" height="1000"><g clip-path="url(#SvgjsClipPath1088)"><rect width="1000" height="1000" fill="#ffffff"></rect><g transform="matrix(3.952569169960474,0,0,3.952569169960474,0,0)"><svg xmlns="http://www.w3.org/2000/svg" version="1.1" xmlns:xlink="http://www.w3.org/1999/xlink" xmlns:svgjs="http://svgjs.dev/svgjs" width="253" height="253"><svg width="253" height="253" viewBox="0 0 253 253" fill="none" xmlns="http://www.w3.org/2000/svg">
<path d="M126.5 0C56.6446 0 0 56.63 0 126.5C0 196.37 56.63 253 126.5 253C196.37 253 253 196.37 253 126.5C253 56.63 196.355 0 126.5 0ZM86.5743 54.7071C91.6677 45.3862 99.3006 40.4101 103.396 38.2671C104.805 37.5331 106.552 38.0762 107.286 39.5001C108.02 40.9092 107.477 42.656 106.053 43.3899C102.545 45.2247 95.9979 49.4815 91.6384 57.4666C86.9706 66.0243 85.5614 73.3048 87.6605 78.002C89.3192 81.701 93.6934 84.7982 99.9611 86.7357C112.306 90.5522 133.252 89.9797 150.059 79.69C163.578 71.426 176.862 54.8979 173.104 46.766C169.405 38.7515 147.52 37.4304 131.315 44.2266C112.937 51.9328 104.937 69.0774 102.354 76.0938C101.796 77.591 100.137 78.3543 98.6401 77.8112C97.1428 77.2534 96.3796 75.5947 96.9227 74.0975C99.7703 66.3765 108.607 47.4852 129.069 38.8982C147.182 31.2947 172.649 32.0287 178.345 44.3293C184.187 56.9529 167.424 75.8296 153.068 84.6073C142.397 91.1393 128.57 94.6768 115.608 94.6768C109.488 94.6768 103.557 93.8842 98.2437 92.2402C90.2586 89.7742 84.7688 85.6642 82.3909 80.3506C79.4992 73.9067 80.9377 65.0261 86.5743 54.7071ZM103.22 176.114C110.603 180.767 123.271 177.479 133.355 168.275C134.529 167.204 136.364 167.277 137.436 168.466C138.507 169.64 138.434 171.475 137.245 172.547C129.098 179.989 119.557 183.996 111.234 183.996C107.139 183.996 103.337 183.027 100.137 181.002C88.732 173.794 90.0824 156.18 90.8898 145.656C91.6237 136.07 94.2952 126.823 98.8456 118.104C92.9888 117.106 87.8366 115.799 83.345 114.243C68.7985 145.949 69.5471 178.227 85.3853 191.688C89.5687 195.24 97.363 199.511 106.684 200.832C122.507 203.078 134.456 195.886 139.564 192.818C158 181.736 165.002 163.152 167.16 155.666C167.512 154.433 168.642 153.582 169.919 153.582L194.741 153.494C194.741 153.494 194.741 153.494 194.755 153.494C195.577 153.494 196.355 153.846 196.898 154.448C197.442 155.065 197.706 155.872 197.618 156.694C196.253 168.906 191.996 180.723 185.288 190.88C175.204 206.146 162.037 214.425 152.76 218.681C152.364 218.858 151.967 218.946 151.556 218.946C150.455 218.946 149.413 218.315 148.929 217.258C148.268 215.804 148.9 214.087 150.353 213.427C158.94 209.493 171.152 201.816 180.473 187.695C186.095 179.196 189.853 169.42 191.453 159.263L172.077 159.336C168.73 169.772 160.745 186.829 142.544 197.765C137.392 200.862 123.726 209.082 105.877 206.542C92.6219 204.663 83.9908 198.058 81.657 196.076C72.8058 188.561 67.6829 175.761 67.2279 160.041C66.7875 144.98 70.5012 128.482 77.9726 112.13C62.5307 105.363 56.2336 95.5282 53.841 87.2935C49.0998 70.9856 56.6446 51.4338 73.07 37.4891C74.2883 36.4616 76.1084 36.6084 77.1359 37.8267C78.1634 39.045 78.0166 40.8652 76.7983 41.8927C62.1051 54.3695 55.2795 71.5581 59.3749 85.6789C62.3106 95.7777 72.3948 108.71 103.763 113.01C103.778 113.01 103.778 113.01 103.792 113.01C140.18 117.972 180.429 93.0622 191.673 58.5822C193.596 52.6814 194.653 46.4283 194.799 40.0138C194.829 38.4138 196.15 37.1368 197.75 37.1955C199.35 37.2396 200.612 38.5606 200.568 40.1459C200.407 47.1329 199.262 53.9291 197.148 60.373C186.11 94.1631 149.12 119.41 113.069 119.41C110.354 119.41 107.638 119.263 104.952 118.97C100.167 127.528 97.363 136.628 96.6291 146.081C95.8952 155.916 94.7649 170.756 103.22 176.114Z" fill="url(#paint0_linear_224_86)"></path>
<defs>
<linearGradient id="paint0_linear_224_86" x1="0.000587143" y1="126.493" x2="252.991" y2="126.493" gradientUnits="userSpaceOnUse">
<stop offset="0.0894" stop-color="#6A52E4"></stop>
<stop offset="0.2517" stop-color="#6E55E6"></stop>
<stop offset="0.4195" stop-color="#7B60EC"></stop>
<stop offset="0.4241" stop-color="#7B60EC"></stop>
<stop offset="0.7495" stop-color="#A17FFF"></stop>
</linearGradient>
<clipPath id="SvgjsClipPath1088"><rect width="1000" height="1000" x="0" y="0" rx="500" ry="500"></rect></clipPath></defs>
</svg></svg></g></g></svg>